<?xml version="1.0" encoding="UTF-8" standalone="no"?>
<!DOCTYPE svg PUBLIC "-//W3C//DTD SVG 1.1//EN" "http://www.w3.org/Graphics/SVG/1.1/DTD/svg11.dtd">
<svg version="1.1" xmlns="http://www.w3.org/2000/svg" xmlns:xlink="http://www.w3.org/1999/xlink" preserveAspectRatio="xMidYMid meet" viewBox="-1 -1 44 49.593985" width="40" height="45.59"><defs><path d="M26.52 23.62C23.59 20.57 17.55 21.54 13.69 18.32C13.69 19.04 13.69 24.82 13.69 25.54C10.07 24.39 7.34 23.02 5.5 21.41C2.94 19.19 1.65 16.35 1.65 12.9C1.65 10.64 2.31 8.5 3.62 6.48C4.94 4.47 6.91 2.88 9.55 1.73C12.19 0.58 15.8 0 20.39 0C26.03 0 30.32 1.05 33.28 3.14C36.24 5.24 37.99 8.57 38.56 13.14C37.35 13.23 27.72 13.95 26.52 14.05C26.18 12.06 24.66 10.47 23.56 9.56C22.47 8.66 20.96 8.21 19.04 8.21C14.5 8.21 13.69 10.52 13.69 11.48C13.69 12.18 14.59 13 15.25 13.56C15.89 14.15 17.41 14.69 19.82 15.19C25.77 16.47 30.04 17.77 32.62 19.08C35.19 20.4 37.07 22.03 38.24 23.97C39.41 25.91 40 28.09 40 30.5C40 33.32 39.22 35.93 37.65 38.32C36.09 40.7 33.9 42.51 31.1 43.74C28.29 44.98 24.75 45.59 20.48 45.59C12.98 45.59 7.79 44.15 4.9 41.26C2.02 38.38 0.38 34.71 0 30.26C1.38 30.17 12.44 29.52 13.82 29.44C14.1 31.55 15.28 36.93 20.69 36.93C22.64 36.93 24.14 36.48 25.19 35.56C26.24 34.65 26.52 33.21 26.52 32.01C26.52 30.33 26.52 24.46 26.52 23.62Z" id="b34G8rRKmK"></path><linearGradient id="gradientc1XjvVm0Qe" gradientUnits="userSpaceOnUse" x1="40" y1="45.59" x2="0" y2="0"><stop style="stop-color: #003aad;stop-opacity: 1" offset="0%"></stop><stop style="stop-color: #6442fe;stop-opacity: 1" offset="100%"></stop></linearGradient></defs><g><g><use xlink:href="#b34G8rRKmK" opacity="1" fill="url(#gradientc1XjvVm0Qe)"></use><g><use xlink:href="#b34G8rRKmK" opacity="1" fill-opacity="0" stroke="#000000" stroke-width="1" stroke-opacity="0"></use></g></g></g></svg>